<?xml version="1.0" encoding="UTF-8"?>
<svg xmlns="http://www.w3.org/2000/svg" xmlns:xlink="http://www.w3.org/1999/xlink" width="104pt" height="104pt" viewBox="0 0 104 104" version="1.1">
<g id="surface453364">
<path style=" stroke:none;fill-rule:nonzero;fill:#ff9900;fill-opacity:1;" d="M 36 20 L 36 28 L 28 28 L 28 80 L 36 80 L 36 88 L 44 88 L 44 80 L 52 80 L 52 88 L 60 88 L 60 79.625 C 61.0625 79.484375 62.21875 79.421875 63.25 79.25 C 65.65625 78.453125 67.625 77.578125 69.625 76.375 C 71.21875 75.171875 72.796875 73.625 74 71.625 C 75.203125 69.625 75.625 67.546875 75.625 64.75 C 75.625 61.546875 74.34375 58.78125 72.75 56.375 C 70.75 53.96875 68.34375 52.421875 64.75 51.625 C 67.546875 50.421875 69.546875 48.84375 70.75 47.25 C 71.953125 45.65625 72.75 43.546875 72.75 40.75 C 72.75 38.34375 72.421875 36.34375 71.625 34.75 C 70.828125 33.15625 69.59375 31.546875 68 30.75 C 66.40625 29.953125 64.78125 29.15625 62.375 28.75 C 61.59375 28.625 60.796875 28.5 60 28.375 L 60 20 L 52 20 L 52 28 L 44 28 L 44 20 Z M 40 36 L 51.625 36 C 52.828125 36 53.953125 35.96875 54.75 36.375 C 55.953125 36.375 56.828125 36.84375 57.625 37.25 C 58.421875 37.65625 59.21875 37.953125 59.625 38.75 C 60.03125 39.546875 60.375 40.421875 60.375 41.625 C 60.375 44.03125 59.96875 45.578125 58.375 46.375 C 56.78125 47.578125 55.15625 48 52.75 48 L 40 48 Z M 40 56 L 54 56 C 56.796875 56 59.25 56.796875 61.25 58 C 63.25 59.203125 64 61.578125 64 64.375 C 64 65.578125 63.65625 67.203125 63.25 68 C 62.453125 69.203125 61.546875 69.96875 60.75 70.375 C 59.953125 70.78125 58.828125 71.21875 57.625 71.625 C 56.421875 72.03125 54.828125 72 53.625 72 L 40 72 Z M 40 56 "/>
</g>
</svg>

