<svg xmlns="http://www.w3.org/2000/svg" viewBox="0 0 128 128"><path fill="#c1d2e5" d="M48 42H32c-5.5 0-10 4.5-10 10v22c0 3.7 2.6 6.8 6 7.7V114c0 3.3 2.7 6 6 6s8.7 0 12 0 6-2.7 6-6V82h6V52C58 46.5 53.5 42 48 42zM40 16A10 10 0 1 0 40 36 10 10 0 1 0 40 16zM96 42H80c-5.5 0-10 4.5-10 10v22c0 3.7 2.6 6.8 6 7.7l0 32c0 3.3 2.5 6.2 5.8 6.2 3.4.1 9 .1 12.4 0 3.3-.1 5.8-3 5.8-6.2l0-31.7h0c3.3 0 6-2.7 6-6V52C106 46.5 101.5 42 96 42zM88 16A10 10 0 1 0 88 36 10 10 0 1 0 88 16z"></path><path fill="#fff" d="M70,120L70,120c-3.3,0-6-2.7-6-6V72h12v42C76,117.3,73.3,120,70,120z"></path><path fill="#fff" d="M72,42H56c-5.5,0-10,4.5-10,10v30h0c3.3,0,6,2.7,6,6l0,25.7c0,3.3,2.5,6.2,5.8,6.2c3.4,0.1,6.2-2.6,6.2-6V82h12h6V52C82,46.5,77.5,42,72,42z"></path><path fill="#444b54" d="M70,123c-5,0-9-4-9-9V82c0-1.7,1.3-3,3-3s3,1.3,3,3v32c0,1.7,1.3,3,3,3s3-1.3,3-3V82c0-1.7,1.3-3,3-3h3V52c0-3.9-3.1-7-7-7H56c-3.9,0-7,3.1-7,7v30c0,1.7-1.3,3-3,3s-3-1.3-3-3V52c0-7.2,5.8-13,13-13h16c7.2,0,13,5.8,13,13v30c0,1.7-1.3,3-3,3h-3v29C79,119,75,123,70,123z"></path><path fill="#fff" d="M64 12A10 10 0 1 0 64 32A10 10 0 1 0 64 12Z"></path><g><path fill="#444b54" d="M64,35c-7.2,0-13-5.8-13-13S56.8,9,64,9s13,5.8,13,13S71.2,35,64,35z M64,15c-3.9,0-7,3.1-7,7s3.1,7,7,7s7-3.1,7-7S67.9,15,64,15z"></path></g><g><path fill="#444b54" d="M58,123c-5,0-9-4-9-9V88c0-1.7,1.3-3,3-3s3,1.3,3,3v26c0,1.7,1.3,3,3,3s3-1.3,3-3c0-1.7,1.3-3,3-3s3,1.3,3,3C67,119,63,123,58,123z"></path></g></svg>