<svg xmlns="http://www.w3.org/2000/svg" viewBox="0 0 40 40"><path fill="#bae0bd" d="M31.5 3.5H38.5V38.5H31.5z"></path><path fill="#5e9c76" d="M38,4v34h-6V4H38 M39,3h-8v36h8V3L39,3z"></path><path fill="#bae0bd" d="M21.5 17.5H28.5V38.5H21.5z"></path><path fill="#5e9c76" d="M28,18v20h-6V18H28 M29,17h-8v22h8V17L29,17z"></path><path fill="#bae0bd" d="M11.5 24.5H18.5V38.5H11.5z"></path><path fill="#5e9c76" d="M18,25v13h-6V25H18 M19,24h-8v15h8V24L19,24z"></path><g><path fill="#bae0bd" d="M1.5 30.5H8.5V38.5H1.5z"></path><path fill="#5e9c76" d="M8,31v7H2v-7H8 M9,30H1v9h8V30L9,30z"></path></g><g><path fill="#4e7ab5" d="M15.464 6.95L3.686 18.728 2.272 17.314 14.05 5.536 10.515 2 19 2 19 10.485z"></path></g></svg>